<?xml version="1.0" encoding="iso-8859-1"?>
<!-- Generator: Adobe Illustrator 18.0.0, SVG Export Plug-In . SVG Version: 6.00 Build 0)  -->
<!DOCTYPE svg PUBLIC "-//W3C//DTD SVG 1.1//EN" "http://www.w3.org/Graphics/SVG/1.1/DTD/svg11.dtd">
<svg xmlns="http://www.w3.org/2000/svg" xmlns:xlink="http://www.w3.org/1999/xlink" version="1.1" id="Capa_1" x="0px" y="0px" viewBox="0 0 52.629 52.629" style="enable-background:new 0 0 52.629 52.629;" xml:space="preserve" width="512px" height="512px">
<g>
	<path d="M51.314,20.629h-4.136l-0.877-6H7.327l-0.877,6H1.314c-0.553,0-1,0.447-1,1s0.447,1,1,1h6h39h0.02h4.98   c0.553,0,1-0.447,1-1S51.867,20.629,51.314,20.629z" fill="#FFDA44"/>
	<path d="M34.391,32.659c-2.164,0-3.925,1.76-3.925,3.924s1.761,3.925,3.925,3.925s3.924-1.761,3.924-3.925   S36.555,32.659,34.391,32.659z" fill="#FFDA44"/>
	<path d="M48.186,25.934c-0.411-1.577-1.223-2.091-1.396-2.185c-0.146-0.079-0.31-0.12-0.476-0.12h-39   c-0.164,0-0.325,0.04-0.47,0.117c-0.174,0.092-0.988,0.602-1.402,2.188c-1.814,0.975-3.128,3.111-3.128,5.195   c0,2.153,1.269,4.089,3.208,4.979C8.019,45.862,16.7,52.629,26.814,52.629s18.796-6.767,21.292-16.521   c1.939-0.89,3.208-2.825,3.208-4.979C51.314,29.045,50.001,26.908,48.186,25.934z M29.019,28.734l4.546-2.272   c0.495-0.246,1.096-0.047,1.342,0.447c0.247,0.494,0.047,1.095-0.447,1.342l-4.546,2.272c-0.144,0.071-0.296,0.105-0.446,0.105   c-0.367,0-0.721-0.202-0.896-0.553C28.324,29.582,28.524,28.981,29.019,28.734z M18.723,26.909   c0.246-0.494,0.848-0.693,1.342-0.447l4.546,2.272c0.494,0.247,0.694,0.848,0.447,1.342c-0.175,0.351-0.528,0.553-0.896,0.553   c-0.15,0-0.303-0.034-0.446-0.105l-4.546-2.272C18.676,28.004,18.476,27.403,18.723,26.909z M31.496,48.568c-0.553,0-1-0.447-1-1   c0-0.709-3.039-2.03-8.849-2.03c-0.553,0-1-0.447-1-1s0.447-1,1-1c1.812,0,10.849,0.194,10.849,4.03   C32.496,48.121,32.049,48.568,31.496,48.568z M34.391,42.508c-3.267,0-5.925-2.658-5.925-5.925c0-0.91-0.741-1.651-1.651-1.651   s-1.651,0.741-1.651,1.651c0,3.267-2.658,5.925-5.925,5.925s-5.924-2.658-5.924-5.925s2.657-5.924,5.924-5.924   c2.264,0,4.234,1.278,5.231,3.149c0.636-0.539,1.448-0.876,2.345-0.876s1.709,0.338,2.345,0.876   c0.997-1.871,2.967-3.149,5.231-3.149c3.267,0,5.924,2.657,5.924,5.924S37.657,42.508,34.391,42.508z" fill="#FFDA44"/>
	<path d="M19.238,32.659c-2.164,0-3.924,1.76-3.924,3.924s1.76,3.925,3.924,3.925s3.925-1.761,3.925-3.925   S21.402,32.659,19.238,32.659z" fill="#FFDA44"/>
	<path d="M44.967,5.493c-0.155-1.135-0.604-2.214-1.299-3.121C42.513,0.864,40.7,0,38.695,0c-0.725,0-1.442,0.115-2.131,0.343   l-8.739,2.887c-0.969,0.317-2.025,0.304-2.98-0.039l-7.531-2.712c-0.728-0.263-1.489-0.396-2.265-0.396   c-3,0-5.572,1.942-6.255,4.723c-0.056,0.224-0.099,0.453-0.13,0.679L7.62,12.629h38.39L44.967,5.493z" fill="#FFDA44"/>
</g>
<g>
</g>
<g>
</g>
<g>
</g>
<g>
</g>
<g>
</g>
<g>
</g>
<g>
</g>
<g>
</g>
<g>
</g>
<g>
</g>
<g>
</g>
<g>
</g>
<g>
</g>
<g>
</g>
<g>
</g>
</svg>
