<?xml version="1.0" encoding="iso-8859-1"?>
<!-- Generator: Adobe Illustrator 19.0.0, SVG Export Plug-In . SVG Version: 6.00 Build 0)  -->
<svg version="1.1" id="Layer_1" xmlns="http://www.w3.org/2000/svg" xmlns:xlink="http://www.w3.org/1999/xlink" x="0px" y="0px"
	 viewBox="0 0 511.992 511.992" style="enable-background:new 0 0 511.992 511.992;" xml:space="preserve">
<g>
	<g>
		<path d="M511.992,101.335c0,0-59.452-42.671-213.34-42.671S85.328,101.335,85.328,101.335v168.849
			c-4.969-0.508-10.906-0.938-17.281-1.023c-5.188-0.07-10.093,0.094-14.718,0.477v-8.305H64c5.891,0,10.656-4.781,10.656-10.672
			S69.891,239.997,64,239.997H21.329c-5.891,0-10.672,4.773-10.672,10.664s4.781,10.672,10.672,10.672h10.672v12.336
			c-7.125,2.289-13.125,5.453-17.969,9.477c-9.265,7.725-14.125,18.6-14.031,31.467c0,0.016,0,0.031,0,0.047s0,0.023,0,0.031
			c0,0.023,0,0.047,0,0.078c0.062,5.844,4.812,10.562,10.656,10.562c5.891,0,10.672-4.781,10.672-10.672c0-0.031,0-0.062,0-0.102
			c-0.062-6.57,1.953-11.344,6.344-15.008c12.593-10.5,40.28-9.938,57.655-7.953v65.734c0,0,15.843,11.359,52.327,22.359
			l-8.5,33.842c-4.297,17.141,6.109,34.523,23.25,38.828c2.609,0.656,5.234,0.969,7.812,0.969c14.328,0,27.359-9.695,31.015-24.219
			l8.984-35.811c27.249,4.014,59.874,6.693,98.436,6.693c38.655,0,71.343-2.695,98.639-6.725l8.984,35.842
			c3.656,14.523,16.688,24.219,31.015,24.219c2.578,0,5.203-0.312,7.812-0.969c17.141-4.305,27.547-21.688,23.25-38.828l-8.5-33.889
			c36.344-10.984,52.14-22.312,52.14-22.312V101.335z M106.656,113.695c6.968-3.477,18.14-8.375,34-13.336
			c8.281-2.586,18.265-5.32,29.999-7.906v39.968c-27.999,3.68-51.14,7.523-63.999,9.781
			C106.656,142.202,106.656,113.695,106.656,113.695z M170.655,153.928v64.733h-63.999v-54.795
			C117.781,161.874,141.359,157.843,170.655,153.928z M106.656,239.997h63.999v64.732c-29.296-3.914-52.874-7.945-63.999-9.938
			C106.656,294.791,106.656,239.997,106.656,239.997z M106.656,344.948v-28.492c12.859,2.258,36,6.102,63.999,9.781v39.984
			c-9.453-2.086-18.5-4.43-27.062-7.016C126.202,353.948,114.077,348.659,106.656,344.948z M170.529,423.915
			c-1.188,4.758-5.437,8.078-10.312,8.078c-0.875,0-1.75-0.109-2.625-0.328c-5.703-1.43-9.171-7.234-7.75-12.945l8.406-33.467
			c6.469,1.562,13.421,3.07,20.859,4.484L170.529,423.915z M213.326,373.565c-2.5-0.32-4.984-0.648-7.437-1
			c-4.703-0.672-9.344-1.398-13.891-2.172V88.297c6.672-1.133,13.781-2.203,21.328-3.172V373.565z M362.651,375.869
			c-19,1.734-40.281,2.789-63.999,2.789c-22.28,0.001-43.702-0.929-63.999-2.765v-42.766c21.391,1.734,43.265,2.867,63.999,2.867
			c20.749,0,42.608-1.125,63.999-2.859V375.869z M362.651,311.737c-21.391,1.766-43.281,2.922-63.999,2.922
			c-20.719,0-42.608-1.156-63.999-2.922v-71.74h127.998V311.737z M362.651,218.661H234.653v-71.733
			c21.391-1.773,43.28-2.929,63.999-2.929c20.718,0,42.608,1.156,63.999,2.921V218.661z M362.651,125.53
			c-21.391-1.734-43.25-2.867-63.999-2.867c-20.734,0-42.608,1.133-63.999,2.867V82.789h0c19-1.734,40.297-2.789,63.999-2.789
			c22.296,0,43.718,0.93,63.999,2.773V125.53z M405.323,370.362h-0.001c-6.672,1.141-13.781,2.203-21.327,3.172V85.094
			c2.5,0.32,4.983,0.648,7.437,1c4.703,0.672,9.344,1.398,13.891,2.18V370.362z M439.915,431.665
			c-0.875,0.219-1.75,0.328-2.625,0.328c-4.875,0-9.124-3.32-10.327-8.078l-8.578-34.209c7.438-1.422,14.39-2.93,20.858-4.5
			l8.422,33.514C449.087,424.431,445.618,430.235,439.915,431.665z M490.649,344.964c-6.953,3.477-18.125,8.375-33.984,13.336
			c-8.281,2.594-18.266,5.32-30.015,7.906v-39.969c28.015-3.68,51.155-7.523,63.999-9.781V344.964z M490.649,294.792
			c-11.109,1.992-34.688,6.023-63.999,9.938v-64.733h63.999V294.792z M490.649,218.662H426.65v-64.733
			c29.312,3.914,52.89,7.945,63.999,9.938V218.662z M490.649,142.202c-12.844-2.258-35.984-6.102-63.999-9.781V92.437
			c9.468,2.094,18.515,4.43,27.077,7.016c17.391,5.258,29.516,10.547,36.922,14.258V142.202z"/>
	</g>
</g>
<g>
</g>
<g>
</g>
<g>
</g>
<g>
</g>
<g>
</g>
<g>
</g>
<g>
</g>
<g>
</g>
<g>
</g>
<g>
</g>
<g>
</g>
<g>
</g>
<g>
</g>
<g>
</g>
<g>
</g>
</svg>
