<?xml version="1.0" encoding="iso-8859-1"?>
<!-- Generator: Adobe Illustrator 19.0.0, SVG Export Plug-In . SVG Version: 6.00 Build 0)  -->
<svg version="1.1" id="Layer_1" xmlns="http://www.w3.org/2000/svg" xmlns:xlink="http://www.w3.org/1999/xlink" x="0px" y="0px"
	 viewBox="0 0 511.987 511.987" style="enable-background:new 0 0 511.987 511.987;" xml:space="preserve">
<rect x="32.004" y="250.653" style="fill:#F6BB42;" width="21.336" height="39.991"/>
<g>
	<path style="fill:#FFCE54;" d="M68.061,269.156c-24.304-0.328-42.475,4.367-54.014,13.992
		c-9.281,7.719-14.125,18.593-14.039,31.468L0,314.647c0,0.031,0,0.031,0,0.031c0,0.031,0,0.062,0,0.094h0.008
		c0.055,5.844,4.805,10.562,10.656,10.562c5.891,0,10.672-4.781,10.672-10.688c0-0.031-0.008-0.062-0.008-0.094h0.008
		c-0.062-6.562,1.953-11.344,6.343-15c7.266-6.062,21.383-9.249,39.757-9.062c15.25,0.156,28.125,2.624,28.242,2.655l4.07-20.968
		C99.163,272.086,85.155,269.39,68.061,269.156z"/>
	<path style="fill:#FFCE54;" d="M74.663,250.657c0-5.891-4.773-10.656-10.664-10.656l0,0H21.337l0,0l0,0
		c-5.891,0-10.664,4.766-10.664,10.656c0,5.89,4.773,10.672,10.664,10.672l0,0l0,0h42.662l0,0
		C69.89,261.329,74.663,256.547,74.663,250.657z"/>
</g>
<g>
	<path style="fill:#965353;" d="M446.442,326.241l21.922,87.279c4.281,17.155-6.125,34.529-23.25,38.842
		c-17.155,4.281-34.529-6.125-38.842-23.249l-21.906-87.311L446.442,326.241z"/>
	<path style="fill:#965353;" d="M151.067,326.241l-21.905,87.279c-4.305,17.155,6.102,34.529,23.241,38.842
		c17.141,4.281,34.522-6.125,38.827-23.249l21.913-87.311L151.067,326.241z"/>
</g>
<path style="fill:#A85D5D;" d="M298.665,58.662c-153.895,0-213.33,42.671-213.33,42.671v256.001c0,0,59.436,42.655,213.33,42.655
	c153.887,0,213.322-42.655,213.322-42.655V101.333C511.987,101.333,452.552,58.662,298.665,58.662z"/>
<g>
	<path style="fill:#965353;" d="M85.335,141.863v21.577c32.179-5.047,130.973-19.437,213.33-19.437s181.137,14.39,213.322,19.437
		v-21.577c-35.795-5.547-132.215-19.203-213.322-19.203C217.55,122.66,121.131,136.316,85.335,141.863z"/>
	<path style="fill:#965353;" d="M85.335,295.21v21.594c35.796,5.531,132.215,19.188,213.33,19.188
		c81.107,0,177.527-13.656,213.322-19.188V295.21c-32.17,5.062-130.934,19.438-213.322,19.438
		C216.307,314.647,117.514,300.272,85.335,295.21z"/>
	<rect x="85.334" y="218.653" style="fill:#965353;" width="426.65" height="21.343"/>
</g>
<g>
	<path style="fill:#F5F7FA;" d="M170.661,388.052c18.093,3.781,39.335,7.094,63.998,9.25V61.349
		c-24.663,2.172-45.905,5.469-63.998,9.266V388.052z"/>
	<path style="fill:#F5F7FA;" d="M362.647,397.302c24.688-2.156,45.922-5.469,63.999-9.25V70.615
		c-18.077-3.797-39.312-7.094-63.999-9.266V397.302z"/>
</g>
<path style="opacity:0.1;enable-background:new    ;" d="M298.665,58.662c-153.895,0-213.33,42.671-213.33,42.671v21.327
	c0,0,59.436-42.655,213.33-42.655c2.203,0,4.391,0,6.562,0.031c1.266,0,2.531,0.016,3.797,0.031
	c0.781,0.016,1.578,0.031,2.375,0.031c144.434,2.265,200.588,42.561,200.588,42.561v-21.326
	C511.987,101.333,452.552,58.662,298.665,58.662z"/>
<path style="opacity:0.1;enable-background:new    ;" d="M298.649,400.739c153.902,0,213.338-42.655,213.338-42.655v-21.343
	c0,0-59.436,42.686-213.338,42.686c-2.188,0-4.375-0.031-6.562-0.031c-1.266,0-2.531-0.031-3.781-0.062
	c-0.781,0-1.594,0-2.375-0.031c-144.441-2.25-200.596-42.561-200.596-42.561v21.343C85.335,358.084,144.77,400.739,298.649,400.739z
	"/>
<g>
</g>
<g>
</g>
<g>
</g>
<g>
</g>
<g>
</g>
<g>
</g>
<g>
</g>
<g>
</g>
<g>
</g>
<g>
</g>
<g>
</g>
<g>
</g>
<g>
</g>
<g>
</g>
<g>
</g>
</svg>
