<?xml version="1.0" encoding="iso-8859-1"?>
<!-- Generator: Adobe Illustrator 19.0.0, SVG Export Plug-In . SVG Version: 6.00 Build 0)  -->
<svg version="1.1" id="Layer_1" xmlns="http://www.w3.org/2000/svg" xmlns:xlink="http://www.w3.org/1999/xlink" x="0px" y="0px"
	 viewBox="0 0 511.987 511.987" style="enable-background:new 0 0 511.987 511.987;" xml:space="preserve">
<polygon style="fill:#965353;" points="477.208,95.999 334.712,68.999 206.215,76.999 97.718,108.998 92.218,349.492 
	125.717,365.491 217.215,381.99 297.212,386.99 408.225,381.99 501.207,348.992 501.207,113.498 "/>
<g>
	<polygon style="fill:#656D78;" points="149.967,379.49 149.217,383.74 140.217,422.74 156.216,441.239 175.966,434.989 
		192.465,381.99 	"/>
	<polygon style="fill:#656D78;" points="449.958,371.241 408.96,389.74 408.96,403.74 423.709,445.989 454.333,434.739 
		458.708,410.365 	"/>
</g>
<g>
	<rect x="176.214" y="75.994" style="fill:#CCD1D9;" width="49.5" height="299.49"/>
	<rect x="376.214" y="75.994" style="fill:#CCD1D9;" width="44.499" height="303.49"/>
</g>
<path d="M511.987,101.342c0,0-59.451-42.686-213.338-42.686c-153.886,0-213.322,42.686-213.322,42.686v168.84
	c-4.968-0.5-10.906-0.938-17.281-1.031c-5.187-0.062-10.093,0.094-14.718,0.484v-8.297h10.671c5.891,0,10.656-4.781,10.656-10.688
	c0-5.874-4.766-10.655-10.656-10.655h-42.67c-5.891,0-10.672,4.781-10.672,10.655c0,5.906,4.781,10.688,10.672,10.688H32v12.328
	c-7.125,2.297-13.125,5.453-17.968,9.484c-9.265,7.718-14.125,18.592-14.031,31.467v0.031c0,0.031,0,0.031,0,0.031
	c0,0.031,0,0.062,0,0.094c0.062,5.844,4.812,10.562,10.656,10.562c5.891,0,10.672-4.781,10.672-10.688c0-0.031,0-0.062,0-0.094
	c-0.062-6.562,1.953-11.344,6.343-14.999c12.594-10.5,40.28-9.938,57.655-7.969v65.748c0,0,15.843,11.344,52.327,22.343l-8.5,33.844
	c-4.297,17.155,6.109,34.529,23.25,38.842c2.609,0.656,5.234,0.969,7.812,0.969c14.328,0,27.359-9.702,31.015-24.217l8.984-35.812
	c27.25,4,59.874,6.688,98.434,6.688c38.656,0,71.342-2.688,98.639-6.719l8.984,35.844c3.656,14.515,16.687,24.217,31.014,24.217
	c2.578,0,5.203-0.312,7.812-0.969c17.141-4.312,27.547-21.687,23.25-38.842l-8.5-33.875c36.343-10.999,52.139-22.312,52.139-22.312
	L511.987,101.342L511.987,101.342z M106.655,113.685c6.969-3.469,18.14-8.375,33.999-13.327c8.281-2.578,18.265-5.328,30-7.906
	v39.968c-28,3.672-51.14,7.515-63.999,9.78V113.685z M106.655,163.872c11.125-2,34.702-6.031,63.999-9.938v64.717h-63.999V163.872z
	 M106.655,239.995h63.999v64.731c-29.296-3.921-52.874-7.952-63.999-9.937V239.995z M106.655,344.945v-28.484
	c12.859,2.25,35.999,6.094,63.999,9.781v39.968c-9.453-2.078-18.5-4.422-27.062-7C126.202,353.945,114.077,348.648,106.655,344.945z
	 M170.529,423.912c-1.188,4.766-5.438,8.077-10.312,8.077c-0.875,0-1.75-0.109-2.625-0.328c-5.703-1.422-9.171-7.233-7.75-12.952
	l8.406-33.469c6.469,1.562,13.422,3.078,20.859,4.5L170.529,423.912z M234.652,82.78c19-1.719,40.295-2.781,63.998-2.781
	c22.297,0,43.718,0.938,63.998,2.781v42.749c-21.39-1.734-43.248-2.875-63.998-2.875c-20.733,0-42.607,1.141-63.998,2.875V82.78z
	 M234.652,146.934c21.39-1.781,43.28-2.938,63.998-2.938c20.719,0,42.608,1.156,63.998,2.922v71.732H234.652V146.934z
	 M234.652,239.995h127.996v71.747c-21.39,1.75-43.279,2.906-63.998,2.906c-20.718,0-42.607-1.156-63.998-2.906V239.995z
	 M213.324,373.554c-2.5-0.312-4.984-0.641-7.437-1c-4.703-0.656-9.344-1.391-13.89-2.156V88.296
	c6.671-1.141,13.781-2.203,21.327-3.172V373.554z M234.652,375.896v-42.779c21.39,1.75,43.264,2.875,63.998,2.875
	c20.75,0,42.608-1.125,63.998-2.859v42.732c-18.999,1.719-40.279,2.781-63.998,2.781
	C276.369,378.646,254.948,377.724,234.652,375.896z M405.319,370.366c-6.672,1.125-13.781,2.188-21.328,3.156V85.093
	c2.5,0.312,4.984,0.656,7.438,1c4.703,0.672,9.344,1.406,13.891,2.188L405.319,370.366L405.319,370.366z M439.911,431.661
	c-0.875,0.219-1.75,0.328-2.625,0.328c-4.875,0-9.124-3.312-10.327-8.077l-8.578-34.203c7.438-1.438,14.39-2.938,20.858-4.5
	l8.422,33.5C449.083,424.428,445.614,430.239,439.911,431.661z M490.644,344.961c-6.952,3.469-18.124,8.375-33.983,13.343
	c-8.281,2.594-18.266,5.312-30.015,7.906v-39.968c28.015-3.688,51.155-7.531,63.998-9.781L490.644,344.961L490.644,344.961z
	 M490.644,294.79c-11.108,1.984-34.687,6.016-63.998,9.937v-64.731h63.998L490.644,294.79L490.644,294.79z M490.644,218.651h-63.998
	v-64.717c29.312,3.906,52.89,7.938,63.998,9.938L490.644,218.651L490.644,218.651z M490.644,142.2
	c-12.843-2.266-35.983-6.108-63.998-9.78V92.436c9.468,2.094,18.515,4.438,27.077,7.016c17.391,5.265,29.516,10.546,36.921,14.265
	L490.644,142.2L490.644,142.2z"/>
<g>
</g>
<g>
</g>
<g>
</g>
<g>
</g>
<g>
</g>
<g>
</g>
<g>
</g>
<g>
</g>
<g>
</g>
<g>
</g>
<g>
</g>
<g>
</g>
<g>
</g>
<g>
</g>
<g>
</g>
</svg>
