<?xml version="1.0" encoding="iso-8859-1"?>
<!-- Generator: Adobe Illustrator 19.0.0, SVG Export Plug-In . SVG Version: 6.00 Build 0)  -->
<svg version="1.1" id="Capa_1" xmlns="http://www.w3.org/2000/svg" xmlns:xlink="http://www.w3.org/1999/xlink" x="0px" y="0px"
	 viewBox="0 0 538.043 538.043" style="enable-background:new 0 0 538.043 538.043;" xml:space="preserve">
<g>
	<ellipse cx="483.749" cy="303.343" rx="17.194" ry="52.668"/>
	<path d="M117.27,71.088c-13.2,5.189-26.376,11.658-39.588,19.955H65.761C22.598,91.043,0,180.549,0,269.004
		s22.586,177.961,65.761,177.961h11.932c13.212,8.298,26.388,14.766,39.588,19.955c-22.084-45.698-33.454-122.076-33.454-197.916
		S95.198,116.797,117.27,71.088z"/>
	<path d="M182.791,54.958c-10.773,1.339-21.426,3.169-32.031,5.691c-21.629,24.858-44.036,99.645-44.036,208.354
		S129.13,452.512,150.76,477.37c10.605,2.535,21.259,4.34,32.031,5.691c-21.283-50.373-32.223-132.502-32.223-214.046
		C150.568,187.46,161.509,105.331,182.791,54.958z"/>
	<path d="M472.306,91.043c-0.323,0-0.682,0.108-0.992,0.12c-17.887-11.215-35.69-19.262-53.601-25.073
		c-23.351,15.543-50.373,89.829-50.373,202.914s27.022,187.37,50.373,202.914c17.911-5.787,35.714-13.846,53.601-25.073
		c0.311,0.012,0.67,0.12,0.992,0.12c43.151,0,65.737-89.494,65.737-177.961C538.043,180.549,515.457,91.043,472.306,91.043z
		 M472.306,424.079c-17.48,0-42.852-60.416-42.852-155.076s25.372-155.076,42.852-155.076c17.468,0,42.852,60.416,42.852,155.076
		S489.775,424.079,472.306,424.079z"/>
	<path d="M391.982,59.274c-32.271-6.827-65.199-7.796-99.968-7.796h-35.128c-16.189,0-31.972,0.215-47.479,1.112
		c-18.652,36.623-35.929,113.336-35.929,216.425c0,104.189,16.859,180.089,35.439,216.401c15.675,0.909,31.625,1.148,47.981,1.148
		h35.128c0.012,0,0,0,0.012,0c34.758,0,67.686-0.968,99.956-7.796c-31.087-37.866-47.575-125.782-47.575-209.729
		C344.431,185.081,360.919,97.141,391.982,59.274z"/>
</g>
<g>
</g>
<g>
</g>
<g>
</g>
<g>
</g>
<g>
</g>
<g>
</g>
<g>
</g>
<g>
</g>
<g>
</g>
<g>
</g>
<g>
</g>
<g>
</g>
<g>
</g>
<g>
</g>
<g>
</g>
</svg>
