<?xml version="1.0" encoding="utf-8"?>
<!-- Generator: Adobe Illustrator 20.1.0, SVG Export Plug-In . SVG Version: 6.00 Build 0)  -->
<svg version="1.1" id="Capa_1" xmlns="http://www.w3.org/2000/svg" xmlns:xlink="http://www.w3.org/1999/xlink" x="0px" y="0px"
	 viewBox="0 0 512 512" style="enable-background:new 0 0 512 512;" xml:space="preserve">
<style type="text/css">
	.st0{fill:#A74E4E;}
</style>
<g>
	<path class="st0" d="M499.2,200.7H459l-8.5-58.4H71.3l-8.5,58.4h-50c-5.4,0-9.7,4.3-9.7,9.7c0,5.4,4.3,9.7,9.7,9.7h58.4h379.4h0.2
		h48.4c5.4,0,9.7-4.3,9.7-9.7C508.9,205,504.6,200.7,499.2,200.7z"/>
	<path class="st0" d="M334.6,317.7c-21.1,0-38.2,17.1-38.2,38.2c0,21.1,17.1,38.2,38.2,38.2s38.2-17.1,38.2-38.2
		S355.6,317.7,334.6,317.7z"/>
	<path class="st0" d="M468.8,252.3c-4-15.3-11.9-20.3-13.6-21.3c-1.4-0.8-3-1.2-4.6-1.2H71.2c-1.6,0-3.2,0.4-4.6,1.1
		c-1.7,0.9-9.6,5.9-13.6,21.3c-17.6,9.5-30.4,30.3-30.4,50.5c0,20.9,12.3,39.8,31.2,48.4C78,446.2,162.5,512,260.9,512
		S443.7,446.2,468,351.3c18.9-8.7,31.2-27.5,31.2-48.4C499.2,282.6,486.4,261.8,468.8,252.3z M282.3,279.5l44.2-22.1
		c4.8-2.4,10.7-0.5,13.1,4.3c2.4,4.8,0.5,10.7-4.3,13.1L291,296.9c-1.4,0.7-2.9,1-4.3,1c-3.6,0-7-2-8.7-5.4
		C275.5,287.8,277.5,281.9,282.3,279.5z M182.1,261.8c2.4-4.8,8.2-6.7,13.1-4.3l44.2,22.1c4.8,2.4,6.8,8.2,4.3,13.1
		c-1.7,3.4-5.1,5.4-8.7,5.4c-1.5,0-2.9-0.3-4.3-1l-44.2-22.1C181.7,272.4,179.7,266.6,182.1,261.8z M306.4,472.5
		c-5.4,0-9.7-4.3-9.7-9.7c0-6.9-29.6-19.7-86.1-19.7c-5.4,0-9.7-4.3-9.7-9.7c0-5.4,4.3-9.7,9.7-9.7c17.6,0,105.5,1.9,105.5,39.2
		C316.1,468.1,311.8,472.5,306.4,472.5z M334.6,413.5c-31.8,0-57.6-25.9-57.6-57.6c0-8.9-7.2-16.1-16.1-16.1
		c-8.9,0-16.1,7.2-16.1,16.1c0,31.8-25.9,57.6-57.6,57.6s-57.6-25.9-57.6-57.6s25.8-57.6,57.6-57.6c22,0,41.2,12.4,50.9,30.6
		c6.2-5.2,14.1-8.5,22.8-8.5c8.7,0,16.6,3.3,22.8,8.5c9.7-18.2,28.9-30.6,50.9-30.6c31.8,0,57.6,25.8,57.6,57.6
		S366.3,413.5,334.6,413.5z"/>
	<path class="st0" d="M187.2,317.7c-21.1,0-38.2,17.1-38.2,38.2c0,21.1,17.1,38.2,38.2,38.2s38.2-17.1,38.2-38.2
		S208.2,317.7,187.2,317.7z"/>
	<path class="st0" d="M437.5,53.4c-1.5-11-5.9-21.5-12.6-30.4C413.6,8.4,395.9,0,376.4,0c-7.1,0-14,1.1-20.7,3.3l-85,28.1
		c-9.4,3.1-19.7,3-29-0.4L168.4,4.7c-7.1-2.6-14.5-3.9-22-3.9c-29.2,0-54.2,18.9-60.9,45.9c-0.5,2.2-1,4.4-1.3,6.6l-10.2,69.5h373.5
		L437.5,53.4z"/>
</g>
</svg>
